<?xml version="1.0" encoding="UTF-8"?>
<svg id="Capa_1" data-name="Capa 1" xmlns="http://www.w3.org/2000/svg" viewBox="0 0 1920 1920">
  <defs>
    <style>
      .cls-1 {
        fill: #ff2312;
      }

      .cls-1, .cls-2 {
        stroke-width: 0px;
      }

      .cls-2 {
        fill: #efd6d3;
      }
    </style>
  </defs>
  <path class="cls-1" d="m1232.49,848.44V108.24c127.58,74.47,214.08,212.98,214.08,370.1s-86.5,295.63-214.08,370.1Z"/>
  <path class="cls-1" d="m1874.71,478.34c0,234.87-193.27,428.14-428.14,428.14h-214.08c234.88,0,428.15-193.27,428.15-428.14S1467.37,50.2,1232.49,50.2h214.08c234.87,0,428.14,193.27,428.14,428.14Z"/>
  <path class="cls-1" d="m901.57,1013.52c0,77.75-21.18,150.94-58.04,214.07-74.48,127.58-212.98,214.07-370.1,214.07s-295.62-86.49-370.1-214.07c-36.86-63.13-58.04-136.32-58.04-214.07h856.28Z"/>
  <polygon class="cls-1" points="1018.42 1013.52 1018.42 1441.66 1018.42 1869.8 1446.57 1869.8 1446.57 1441.66 1446.57 1013.52 1018.42 1013.52"/>
  <polygon class="cls-1" points="1660.64 1013.52 1660.64 1441.66 1660.64 1869.8 1874.71 1869.8 1874.71 1441.66 1874.71 1013.52 1660.64 1013.52"/>
  <polygon class="cls-1" points="473.43 50.2 473.43 478.34 473.43 906.48 901.57 906.48 901.57 478.34 901.57 50.2 473.43 50.2"/>
  <polygon class="cls-1" points="45.29 50.2 45.29 478.34 45.29 906.48 259.36 906.48 259.36 478.34 259.36 50.2 45.29 50.2"/>
  <path class="cls-2" d="m1446.57,478.34c0,157.12-86.5,295.63-214.08,370.1-63.13,36.86-136.32,58.04-214.07,58.04V50.2c77.75,0,150.94,21.18,214.07,58.04,127.58,74.47,214.08,212.98,214.08,370.1Z"/>
  <path class="cls-1" d="m1446.57,478.34c0,157.12-86.5,295.63-214.08,370.1-63.13,36.86-136.32,58.04-214.07,58.04V50.2c77.75,0,150.94,21.18,214.07,58.04,127.58,74.47,214.08,212.98,214.08,370.1Z"/>
  <path class="cls-1" d="m103.33,1227.59h740.2c-74.48,127.58-212.98,214.07-370.1,214.07s-295.62-86.49-370.1-214.07Z"/>
  <path class="cls-1" d="m901.57,1227.59v214.07c0,234.87-193.27,428.14-428.14,428.14S45.29,1676.53,45.29,1441.66v-214.07c0,234.87,193.27,428.14,428.14,428.14s428.14-193.27,428.14-428.14Z"/>
  <path class="cls-2" d="m901.57,1013.52c0,77.75-21.18,150.94-58.04,214.07-74.48,127.58-212.98,214.07-370.1,214.07s-295.62-86.49-370.1-214.07c-36.86-63.13-58.04-136.32-58.04-214.07h856.28Z"/>
  <path class="cls-1" d="m901.57,1013.52c0,77.75-21.18,150.94-58.04,214.07-74.48,127.58-212.98,214.07-370.1,214.07s-295.62-86.49-370.1-214.07c-36.86-63.13-58.04-136.32-58.04-214.07h856.28Z"/>
</svg>